# Inner Solid Cube
g inner_cube
usemtl inner_cube
v -1.000 -1.000 -1.000
v  1.000 -1.000 -1.000
v  1.000  1.000 -1.000
v -1.000  1.000 -1.000
v -1.000 -1.000  1.000
v  1.000 -1.000  1.000
v  1.000  1.000  1.000
v -1.000  1.000  1.000
f 1 3 2
f 1 4 3
f 5 6 7
f 5 7 8
f 1 2 6
f 1 6 5
f 2 3 7
f 2 7 6
f 3 4 8
f 3 8 7
f 4 1 5
f 4 5 8

# Outer Wireframe Struts (12 Edges)
g outer_frame
usemtl outer_frame
# X-parallel 1 (Y=-1.48, Z=-1.48)
v -1.495 -1.495 -1.495
v  1.495 -1.495 -1.495
v  1.495 -1.465 -1.495
v -1.495 -1.465 -1.495
v -1.495 -1.495 -1.465
v  1.495 -1.495 -1.465
v  1.495 -1.465 -1.465
v -1.495 -1.465 -1.465
f 9 11 10
f 9 12 11
f 13 14 15
f 13 15 16
f 9 10 14
f 9 14 13
f 10 11 15
f 10 15 14
f 11 12 16
f 11 16 15
f 12 9 13
f 12 13 16

# X-parallel 2 (Y=1.48, Z=-1.48)
v -1.495  1.465 -1.495
v  1.495  1.465 -1.495
v  1.495  1.495 -1.495
v -1.495  1.495 -1.495
v -1.495  1.465 -1.465
v  1.495  1.465 -1.465
v  1.495  1.495 -1.465
v -1.495  1.495 -1.465
f 17 19 18
f 17 20 19
f 21 22 23
f 21 23 24
f 17 18 22
f 17 22 21
f 18 19 23
f 18 23 22
f 19 20 24
f 19 24 23
f 20 17 21
f 20 21 24

# X-parallel 3 (Y=-1.48, Z=1.48)
v -1.495 -1.495  1.465
v  1.495 -1.495  1.465
v  1.495 -1.465  1.465
v -1.495 -1.465  1.465
v -1.495 -1.495  1.495
v  1.495 -1.495  1.495
v  1.495 -1.465  1.495
v -1.495 -1.465  1.495
f 25 27 26
f 25 28 27
f 29 30 31
f 29 31 32
f 25 26 30
f 25 30 29
f 26 27 31
f 26 31 30
f 27 28 32
f 27 32 31
f 28 25 29
f 28 29 32

# X-parallel 4 (Y=1.48, Z=1.48)
v -1.495  1.465  1.465
v  1.495  1.465  1.465
v  1.495  1.495  1.465
v -1.495  1.495  1.465
v -1.495  1.465  1.495
v  1.495  1.465  1.495
v  1.495  1.495  1.495
v -1.495  1.495  1.495
f 33 35 34
f 33 36 35
f 37 38 39
f 37 39 40
f 33 34 38
f 33 38 37
f 34 35 39
f 34 39 38
f 35 36 40
f 35 40 39
f 36 33 37
f 36 37 40

# Y-parallel 1 (X=-1.48, Z=-1.48)
v -1.495 -1.495 -1.495
v -1.465 -1.495 -1.495
v -1.465  1.495 -1.495
v -1.495  1.495 -1.495
v -1.495 -1.495 -1.465
v -1.465 -1.495 -1.465
v -1.465  1.495 -1.465
v -1.495  1.495 -1.465
f 41 43 42
f 41 44 43
f 45 46 47
f 45 47 48
f 41 42 46
f 41 46 45
f 42 43 47
f 42 47 46
f 43 44 48
f 43 48 47
f 44 41 45
f 44 45 48

# Y-parallel 2 (X=1.48, Z=-1.48)
v  1.465 -1.495 -1.495
v  1.495 -1.495 -1.495
v  1.495  1.495 -1.495
v  1.465  1.495 -1.495
v  1.465 -1.495 -1.465
v  1.495 -1.495 -1.465
v  1.495  1.495 -1.465
v  1.465  1.495 -1.465
f 49 51 50
f 49 52 51
f 53 54 55
f 53 55 56
f 49 50 54
f 49 54 53
f 50 51 55
f 50 55 54
f 51 52 56
f 51 56 55
f 52 49 53
f 52 53 56

# Y-parallel 3 (X=-1.48, Z=1.48)
v -1.495 -1.495  1.465
v -1.465 -1.495  1.465
v -1.465  1.495  1.465
v -1.495  1.495  1.465
v -1.495 -1.495  1.495
v -1.465 -1.495  1.495
v -1.465  1.495  1.495
v -1.495  1.495  1.495
f 57 59 58
f 57 60 59
f 61 62 63
f 61 63 64
f 57 58 62
f 57 62 61
f 58 59 63
f 58 63 62
f 59 60 64
f 59 64 63
f 60 57 61
f 60 61 64

# Y-parallel 4 (X=1.48, Z=1.48)
v  1.465 -1.495  1.465
v  1.495 -1.495  1.465
v  1.495  1.495  1.465
v  1.465  1.495  1.465
v  1.465 -1.495  1.495
v  1.495 -1.495  1.495
v  1.495  1.495  1.495
v  1.465  1.495  1.495
f 65 67 66
f 65 68 67
f 69 70 71
f 69 71 72
f 65 66 70
f 65 70 69
f 66 67 71
f 66 71 70
f 67 68 72
f 67 72 71
f 68 65 69
f 68 69 72

# Z-parallel 1 (X=-1.48, Y=-1.48)
v -1.495 -1.495 -1.495
v -1.465 -1.495 -1.495
v -1.465 -1.465 -1.495
v -1.495 -1.465 -1.495
v -1.495 -1.495  1.495
v -1.465 -1.495  1.495
v -1.465 -1.465  1.495
v -1.495 -1.465  1.495
f 73 75 74
f 73 76 75
f 77 78 79
f 77 79 80
f 73 74 78
f 73 78 77
f 74 75 79
f 74 79 78
f 75 76 80
f 75 80 79
f 76 73 77
f 76 77 80

# Z-parallel 2 (X=1.48, Y=-1.48)
v  1.465 -1.495 -1.495
v  1.495 -1.495 -1.495
v  1.495 -1.465 -1.495
v  1.465 -1.465 -1.495
v  1.465 -1.495  1.495
v  1.495 -1.495  1.495
v  1.495 -1.465  1.495
v  1.465 -1.465  1.495
f 81 83 82
f 81 84 83
f 85 86 87
f 85 87 88
f 81 82 86
f 81 86 85
f 82 83 87
f 82 87 86
f 83 84 88
f 83 88 87
f 84 81 85
f 84 85 88

# Z-parallel 3 (X=-1.48, Y=1.48)
v -1.495  1.465 -1.495
v -1.465  1.465 -1.495
v -1.465  1.495 -1.495
v -1.495  1.495 -1.495
v -1.495  1.465  1.495
v -1.465  1.465  1.495
v -1.465  1.495  1.495
v -1.495  1.495  1.495
f 89 91 90
f 89 92 91
f 93 94 95
f 93 95 96
f 89 90 94
f 89 94 93
f 90 91 95
f 90 95 94
f 91 92 96
f 91 96 95
f 92 89 93
f 92 93 96

# Z-parallel 4 (X=1.48, Y=1.48)
v  1.465  1.465 -1.495
v  1.495  1.465 -1.495
v  1.495  1.495 -1.495
v  1.465  1.495 -1.495
v  1.465  1.465  1.495
v  1.495  1.465  1.495
v  1.495  1.495  1.495
v  1.465  1.495  1.495
f 97 99 98
f 97 100 99
f 101 102 103
f 101 103 104
f 97 98 102
f 97 102 101
f 98 99 103
f 98 103 102
f 99 100 104
f 99 104 103
f 100 97 101
f 100 101 104

# Shadow Decal on Front Face (Y = -1.0)
g arrow
usemtl arrow
# Front face of decal (Y = -1.050)
v -0.050 -1.050  0.150
v  0.160 -1.050  0.550
v  0.070 -1.050  0.480
v  0.320 -1.050  0.980
v  0.220 -1.050  0.980
v -0.010 -1.050  0.480
v -0.180 -1.050  0.500
# Back face of decal (Y = -1.000)
v -0.050 -1.000  0.150
v  0.160 -1.000  0.550
v  0.070 -1.000  0.480
v  0.320 -1.000  0.980
v  0.220 -1.000  0.980
v -0.010 -1.000  0.480
v -0.180 -1.000  0.500

# Front cap
f 105 106 107
f 105 107 110
f 105 110 111
f 107 108 109
f 107 109 110

# Side walls
f 105 112 113
f 105 113 106
f 106 113 114
f 106 114 107
f 107 114 115
f 107 115 108
f 108 115 116
f 108 116 109
f 109 116 117
f 109 117 110
f 110 117 118
f 110 118 111
f 111 118 112
f 111 112 105